<svg width="718" height="422" viewBox="0 0 718 422" fill="none" xmlns="http://www.w3.org/2000/svg">
<path d="M9.9549 316.729L44.8484 106.547H76.5604L61.3715 197.886H166.154L181.343 106.547H213.158L178.265 316.729H146.45L161.639 225.082H56.8558L41.6669 316.729H9.9549ZM422.314 174.897H390.909C390.773 168.055 389.507 162.034 387.112 156.835C384.718 151.566 381.433 147.153 377.26 143.596C373.155 139.969 368.331 137.233 362.789 135.385C357.248 133.538 351.261 132.614 344.83 132.614C332.446 132.614 320.815 135.762 309.936 142.056C299.058 148.351 289.787 157.519 282.124 169.56C274.461 181.602 269.193 196.278 266.319 213.588C263.514 230.419 263.856 244.547 267.346 255.973C270.835 267.399 276.719 276.054 284.998 281.938C293.345 287.754 303.368 290.661 315.067 290.661C321.909 290.661 328.58 289.772 335.08 287.993C341.648 286.146 347.737 283.443 353.348 279.885C358.958 276.328 363.918 271.983 368.229 266.852C372.607 261.652 376.028 255.699 378.491 248.994H410.306C406.885 259.394 402.062 268.904 395.836 277.525C389.61 286.146 382.255 293.603 373.771 299.898C365.287 306.192 355.982 311.05 345.856 314.471C335.73 317.892 325.022 319.602 313.733 319.602C295.192 319.602 279.387 315.189 266.319 306.363C253.32 297.469 243.981 284.812 238.302 268.391C232.692 251.971 231.734 232.403 235.428 209.688C239.191 187.589 246.375 168.637 256.98 152.832C267.653 136.959 280.653 124.815 295.979 116.399C311.373 107.915 327.999 103.673 345.856 103.673C357.145 103.673 367.476 105.281 376.849 108.497C386.223 111.644 394.296 116.297 401.07 122.454C407.911 128.544 413.18 136.001 416.874 144.827C420.569 153.585 422.382 163.608 422.314 174.897ZM513.447 316.729L548.341 106.547H580.053L564.864 197.886H669.647L684.836 106.547H716.65L681.757 316.729H649.942L665.131 225.082H560.348L545.159 316.729H513.447Z" fill="black" style="fill:black;fill-opacity:1;"/>
<path d="M385.5 236.229L568.5 1.22882L477 192.229H543.5L366.5 420.229L450.5 236.229H385.5Z" fill="#F8F8F8" stroke="#1C1C1A" style="fill:#F8F8F8;fill:color(display-p3 0.9708 0.9708 0.9708);fill-opacity:1;stroke:#1C1C1A;stroke:color(display-p3 0.1098 0.1098 0.1020);stroke-opacity:1;" stroke-width="4"/>
</svg>
